<?xml version="1.0" standalone="no"?>
<!DOCTYPE svg PUBLIC "-//W3C//DTD SVG 20010904//EN"
 "http://www.w3.org/TR/2001/REC-SVG-20010904/DTD/svg10.dtd">
<svg version="1.0" xmlns="http://www.w3.org/2000/svg"
 width="2942.000000pt" height="1408.000000pt" viewBox="0 0 2942.000000 1408.000000"
 preserveAspectRatio="xMidYMid meet">

<g transform="translate(0.000000,1408.000000) scale(0.100000,-0.100000)"
fill="#000000" stroke="none">
<path d="M14180 13500 c-314 -19 -795 -96 -1151 -185 -229 -58 -523 -152 -557
-178 -16 -12 -7 -86 17 -137 22 -48 48 -49 179 -6 251 82 574 165 847 217 103
20 396 59 560 74 236 23 745 23 1000 1 426 -38 898 -112 1015 -161 19 -8 134
-43 255 -79 307 -90 580 -198 764 -300 53 -29 150 -82 216 -117 567 -298 1124
-714 1575 -1175 306 -313 502 -552 752 -920 133 -194 375 -614 437 -756 10
-24 38 -83 61 -133 96 -204 157 -360 248 -630 106 -315 156 -503 206 -765 58
-305 68 -376 103 -700 24 -227 25 -915 1 -1130 -9 -80 -22 -199 -29 -265 -7
-66 -14 -122 -16 -124 -2 -3 -13 5 -26 17 -73 68 -406 222 -482 222 -11 0 -25
4 -30 9 -14 11 -151 38 -265 52 -55 7 -142 9 -205 5 l-110 -6 25 20 c47 38
205 108 315 140 60 17 118 38 127 47 26 24 24 84 -4 111 -45 41 -245 109 -403
137 -107 19 -358 22 -490 5 -177 -22 -380 -87 -532 -171 -138 -76 -160 -87
-184 -93 -41 -9 -42 13 -6 101 40 97 84 173 100 173 26 0 136 151 157 213 11
35 10 40 -11 63 -53 57 -135 55 -370 -9 -169 -46 -252 -92 -373 -206 -27 -25
-46 -40 -42 -34 5 9 2 11 -8 7 -9 -3 -14 -9 -11 -13 6 -10 -58 -72 -77 -74 -7
-2 -28 -13 -45 -25 -27 -19 -40 -22 -82 -16 -78 10 -115 -19 -266 -212 -38
-49 -110 -136 -160 -194 -98 -114 -145 -177 -190 -255 l-29 -50 -7 30 c-12 54
-9 138 8 257 9 65 14 120 10 124 -22 23 -153 -89 -275 -235 -239 -285 -370
-538 -487 -940 l-33 -114 -11 74 c-35 217 -44 244 -87 255 -42 11 -70 -14
-138 -118 -154 -236 -251 -472 -311 -762 -24 -116 -24 -117 -83 -184 -122
-139 -201 -280 -239 -427 -10 -38 -20 -72 -24 -75 -12 -10 -59 -166 -84 -279
-19 -84 -32 -120 -48 -135 -87 -80 -253 -441 -303 -659 l-18 -78 -77 2 -77 2
-6 66 c-18 196 -49 443 -61 491 -8 30 -28 115 -45 188 -41 171 -128 438 -185
567 -8 17 -26 59 -40 95 -15 36 -41 91 -57 122 -20 37 -28 65 -25 79 15 58
-143 380 -306 624 -225 336 -494 640 -1069 1210 -540 535 -657 667 -807 915
-170 282 -238 490 -248 765 -8 210 13 321 88 478 58 122 185 257 305 324 77
42 198 81 295 94 115 16 120 6 39 -77 -50 -50 -87 -76 -160 -112 -115 -56
-130 -68 -130 -102 0 -91 289 -221 612 -275 376 -63 516 -151 652 -411 34 -66
96 -248 96 -284 0 -34 -17 -40 -113 -40 -63 0 -71 -3 -99 -30 -26 -26 -30 -36
-25 -65 9 -53 59 -118 196 -256 140 -140 326 -293 411 -338 61 -32 176 -61
243 -61 71 0 157 20 217 50 57 29 163 131 175 170 9 29 22 25 41 -12 49 -97
202 -251 333 -336 258 -169 536 -193 790 -70 70 33 101 57 175 132 163 163
241 345 239 556 0 103 -13 140 -47 140 -20 0 -31 -11 -52 -47 -89 -159 -173
-250 -276 -301 -92 -45 -168 -62 -278 -62 -159 0 -284 54 -402 173 -98 99
-158 221 -289 587 -44 124 -154 340 -234 461 -114 171 -239 280 -514 448 -88
54 -149 97 -144 102 15 15 223 22 288 10 75 -14 162 -56 246 -119 69 -52 268
-268 283 -306 6 -16 2 -47 -13 -103 -29 -109 -28 -141 5 -154 38 -14 56 -5
125 59 59 55 62 56 87 41 40 -22 39 -66 -1 -184 -19 -55 -40 -114 -47 -132
-12 -26 -12 -34 0 -48 29 -35 182 7 288 78 24 16 46 26 49 23 10 -10 -37 -216
-69 -299 -38 -98 -35 -111 21 -115 119 -9 336 100 465 233 24 24 48 36 92 46
105 22 186 72 237 146 76 110 147 442 133 628 -11 163 -114 438 -186 499 -52
43 -112 29 -145 -35 -9 -16 -21 -29 -29 -29 -19 0 -517 520 -540 564 l-19 36
28 85 c35 105 30 166 -19 272 -44 91 -82 147 -289 423 -209 277 -268 348 -397
475 -92 91 -106 110 -161 219 -182 362 -280 508 -464 692 -206 207 -349 298
-674 429 -288 116 -452 209 -636 360 -177 146 -311 302 -430 503 -90 151 -100
162 -142 162 -25 0 -43 -8 -64 -30 -30 -29 -30 -31 -24 -102 27 -293 137 -607
295 -838 159 -232 324 -375 665 -577 179 -106 229 -141 334 -232 67 -58 175
-180 167 -188 -2 -2 -21 0 -43 6 -21 6 -110 18 -197 27 -145 13 -161 17 -174
37 -32 49 -343 347 -427 410 -166 123 -417 252 -605 311 -43 14 -175 50 -292
80 -262 67 -359 101 -510 176 -316 157 -568 379 -772 680 -32 47 -68 93 -80
102 -30 25 -70 22 -103 -6 -26 -23 -28 -29 -26 -93 3 -128 79 -371 173 -558
82 -162 156 -274 263 -395 207 -236 430 -379 837 -540 237 -94 365 -162 494
-265 25 -19 15 -30 -13 -15 -12 6 -69 26 -126 45 -333 109 -743 131 -1120 59
-195 -37 -499 -134 -635 -202 -63 -31 -96 -81 -84 -127 9 -38 37 -51 144 -70
134 -22 273 -61 356 -100 78 -36 194 -110 194 -125 0 -5 -21 -12 -47 -15 -27
-4 -102 -19 -168 -35 -439 -104 -759 -282 -1084 -603 -145 -144 -247 -267
-263 -319 -20 -67 19 -118 91 -118 16 0 67 11 115 25 132 38 163 44 276 55
101 9 230 4 230 -9 0 -4 -28 -23 -63 -44 -220 -128 -487 -383 -626 -597 -121
-187 -234 -442 -280 -632 -29 -119 -28 -162 5 -195 37 -37 96 -29 166 24 129
95 262 166 352 187 36 9 34 4 -34 -100 -158 -241 -263 -547 -304 -884 -33
-277 -7 -785 46 -869 21 -34 65 -44 107 -24 34 17 57 49 103 143 20 41 99 161
145 222 45 59 161 178 174 178 13 0 15 -36 8 -155 -13 -212 -10 -522 7 -650
31 -243 97 -487 196 -730 65 -158 191 -396 234 -442 53 -56 124 -39 143 35 6
20 24 88 41 151 29 106 107 297 118 286 2 -2 6 -26 8 -52 15 -194 69 -380 182
-628 77 -168 175 -429 163 -433 -6 -2 0 -32 15 -72 34 -94 73 -258 80 -333 9
-102 30 -137 83 -137 26 0 71 21 71 32 0 5 13 28 29 51 33 49 91 162 116 229
10 26 21 45 26 42 14 -8 10 -175 -6 -261 -17 -93 -74 -211 -116 -242 l-30 -23
-127 27 c-154 32 -717 172 -740 184 -9 5 -55 21 -102 37 -148 48 -531 204
-655 267 -191 97 -423 238 -429 262 -3 11 -12 68 -21 127 -49 335 -200 701
-391 950 -50 64 -59 95 -98 338 -61 373 -85 639 -93 1010 -16 804 123 1591
426 2400 162 435 435 946 737 1380 216 312 408 537 725 852 137 136 249 254
249 262 0 21 -99 126 -120 126 -37 0 -423 -376 -626 -611 -419 -484 -783
-1062 -1041 -1654 -109 -250 -196 -482 -259 -695 -71 -240 -98 -344 -134 -505
-10 -44 -29 -132 -43 -195 -60 -267 -102 -645 -122 -1090 -9 -195 13 -659 46
-945 15 -134 19 -161 35 -268 9 -54 13 -101 10 -105 -4 -3 -19 6 -34 20 -31
29 -132 97 -179 122 -97 49 -153 -20 -104 -128 15 -31 61 -223 61 -251 0 -2
-24 21 -52 52 -248 264 -531 436 -858 522 -145 37 -252 51 -406 51 -196 0
-384 -42 -418 -94 -26 -41 -30 -75 -11 -96 10 -11 56 -41 101 -65 118 -65 213
-139 214 -167 0 -5 -19 -8 -42 -8 -24 0 -81 -9 -128 -20 -444 -107 -812 -311
-1131 -630 -166 -166 -359 -442 -343 -492 3 -11 -16 -54 -56 -119 -201 -330
-396 -810 -455 -1119 -8 -41 -19 -96 -25 -122 -25 -125 -60 -485 -54 -565 1
-26 6 -104 9 -173 l6 -124 -56 -82 c-148 -217 -425 -404 -752 -505 -99 -31
-311 -69 -385 -69 -61 0 -202 15 -372 40 -74 11 -96 4 -96 -32 0 -44 238 -125
438 -150 180 -22 488 23 673 98 117 48 309 151 363 195 32 27 164 140 207 177
l38 33 11 -43 c23 -95 65 -236 87 -292 13 -33 21 -61 20 -63 -2 -1 -75 35
-162 82 -155 83 -186 94 -213 76 -23 -14 24 -96 87 -152 156 -141 467 -307
700 -374 239 -68 367 -87 646 -92 197 -4 280 -2 390 12 253 30 449 82 664 176
202 88 241 107 451 219 190 101 317 159 381 175 26 6 28 4 54 -77 16 -46 48
-123 73 -171 45 -89 66 -113 36 -41 -21 49 -34 94 -28 94 3 0 12 -17 21 -38 8
-20 37 -86 63 -147 27 -60 52 -123 56 -140 4 -16 30 -70 57 -120 181 -326 369
-525 602 -640 188 -92 328 -120 565 -112 275 10 389 39 1040 262 329 114 637
165 862 144 147 -14 231 -34 468 -114 107 -36 241 -79 297 -95 409 -120 783
-66 1563 225 369 138 421 155 609 206 381 102 619 125 856 84 99 -17 224 -54
278 -81 21 -11 32 -12 48 -3 12 6 34 8 50 5 16 -3 29 -3 29 1 0 34 -149 150
-246 191 -59 25 -222 55 -262 49 -21 -3 -19 -4 10 -6 20 0 40 -6 43 -12 5 -7
-12 -9 -52 -7 -63 5 -105 -2 -103 -16 1 -5 -4 -13 -12 -17 -10 -7 -10 -9 0 -9
6 0 12 -4 12 -10 0 -11 -53 -14 -64 -3 -3 4 9 23 29 43 22 22 40 55 49 85 7
28 36 124 64 215 113 368 146 533 158 780 3 52 7 110 10 129 l5 34 100 -7 c55
-3 154 -18 220 -32 123 -25 187 -44 603 -173 126 -39 297 -85 380 -103 140
-30 165 -32 346 -33 192 0 240 5 370 41 163 46 282 97 398 171 345 222 618
330 854 336 123 4 147 14 122 52 -23 36 -66 46 -224 52 -108 4 -170 1 -243
-11 -170 -28 -410 -131 -570 -243 -72 -50 -173 -102 -185 -94 -17 10 2 112 43
230 131 377 393 846 617 1106 97 112 246 245 358 320 241 161 457 231 695 228
318 -3 540 -142 767 -478 107 -158 248 -456 248 -522 0 -98 -419 -645 -817
-1065 -179 -189 -492 -492 -588 -569 -69 -55 -380 -269 -391 -269 -3 0 -20
-10 -37 -22 -22 -15 -28 -17 -18 -5 7 9 9 17 4 17 -19 0 -153 -63 -153 -72 0
-5 14 -1 31 8 41 21 35 -3 -7 -25 -16 -9 -51 -29 -77 -44 -27 -16 -52 -26 -55
-22 -4 4 -1 10 6 12 7 3 19 11 27 20 8 8 15 12 15 8 0 -3 11 2 25 11 28 19 34
40 8 29 -36 -14 -76 -24 -67 -16 32 28 147 91 156 85 6 -4 8 -3 5 3 -4 6 40
48 98 94 57 46 102 85 100 87 -2 2 -75 -42 -161 -99 -290 -188 -630 -362 -909
-464 -55 -21 -104 -41 -110 -45 -51 -41 -649 -233 -930 -299 -348 -82 -544
-104 -920 -105 -224 0 -283 3 -430 24 -137 19 -210 24 -380 24 -205 0 -213 -1
-329 -32 -193 -52 -353 -121 -472 -203 -79 -55 -94 -84 -49 -95 18 -4 61 7
143 40 279 110 578 131 1002 71 618 -88 1189 -27 1885 201 204 67 492 171 510
184 6 5 68 31 138 59 486 194 847 388 1292 697 168 117 223 143 221 104 0 -10
-11 -29 -24 -40 -45 -42 -13 -32 48 15 231 178 691 634 826 819 l21 29 189
-47 c408 -99 565 -121 844 -113 260 6 437 41 795 157 222 72 355 99 535 109
269 15 506 -22 918 -143 294 -87 444 -115 647 -123 238 -9 483 37 780 147 415
153 580 186 809 161 163 -19 225 -33 609 -145 169 -49 207 -55 227 -31 19 23
-5 74 -39 81 -14 4 -33 13 -41 20 -21 18 -150 76 -287 130 -250 98 -506 151
-686 141 -79 -4 -88 -3 -82 12 11 28 33 152 45 262 8 71 11 182 7 330 -7 279
-31 422 -123 730 -19 64 -32 123 -29 131 9 24 -69 229 -161 425 -195 414 -528
763 -1084 1133 -393 262 -558 387 -705 534 -188 188 -302 392 -330 588 -6 41
-5 48 16 62 44 28 144 47 299 56 296 18 479 93 683 279 86 80 171 200 237 335
80 164 96 216 78 253 -22 46 -52 42 -100 -14 -71 -80 -135 -141 -175 -166 -39
-24 -113 -56 -148 -63 -11 -3 -40 -9 -65 -15 -25 -5 -79 -14 -120 -18 -104
-13 -149 -21 -192 -38 -56 -22 -62 -69 -12 -92 37 -16 212 -41 296 -41 l73 -1
-45 -40 c-75 -69 -192 -130 -315 -166 -27 -8 -124 -19 -215 -23 -107 -6 -191
-16 -238 -29 -39 -10 -74 -15 -77 -11 -9 14 24 232 49 326 80 297 287 619 550
856 164 147 298 240 526 362 146 79 170 99 170 138 0 73 -44 95 -154 78 -212
-32 -534 -160 -791 -315 -177 -107 -410 -317 -564 -510 -196 -244 -329 -526
-387 -818 -15 -75 -31 -137 -35 -137 -11 0 -42 103 -67 220 -59 279 -54 529
18 810 20 79 54 170 63 170 2 0 21 -45 42 -101 44 -118 85 -169 133 -169 44 0
51 20 62 168 10 143 46 297 112 476 70 193 176 361 328 520 83 87 226 203 237
192 2 -2 -21 -50 -51 -107 -79 -151 -146 -365 -146 -465 0 -41 22 -89 45 -98
28 -10 70 -7 91 8 11 8 31 35 44 61 13 25 58 83 101 129 133 142 288 234 524
311 137 45 344 99 352 92 2 -3 -12 -14 -31 -26 -59 -37 -86 -77 -86 -127 0
-63 22 -65 167 -18 115 38 121 39 253 37 74 -1 208 -11 298 -22 373 -48 634
-14 956 124 31 13 6 -21 -91 -126 -228 -247 -468 -410 -766 -520 -87 -32 -223
-66 -507 -129 -262 -58 -310 -80 -310 -145 0 -48 14 -55 114 -55 122 -1 233
-22 313 -59 36 -17 64 -33 62 -35 -2 -2 -47 -9 -99 -15 -184 -23 -383 -73
-523 -132 -95 -40 -271 -146 -323 -195 -50 -46 -60 -95 -25 -114 22 -11 31 -9
264 84 349 139 528 178 834 180 221 1 235 5 248 66 13 59 -37 125 -167 222
-38 28 -68 54 -68 57 0 4 24 13 53 20 91 24 267 91 394 151 399 190 759 541
952 929 65 133 72 167 38 206 -18 22 -33 29 -60 29 -37 0 -49 -7 -188 -113
-153 -116 -374 -210 -574 -245 -126 -22 -348 -20 -510 4 -71 11 -145 20 -162
20 -18 0 -33 3 -33 7 0 3 31 40 68 82 85 95 102 120 102 149 0 36 -27 79 -54
86 -27 7 -42 2 -211 -68 -67 -27 -244 -81 -450 -136 -362 -97 -456 -132 -614
-226 -51 -30 -95 -53 -97 -51 -5 5 66 127 114 197 17 25 59 77 93 115 34 39
67 84 75 102 19 43 3 87 -38 104 -68 28 -316 -67 -497 -191 -165 -113 -321
-278 -452 -477 -66 -100 -161 -297 -190 -393 -12 -41 -24 -70 -26 -63 -2 6
-10 33 -16 59 -24 95 -95 109 -147 29 -54 -82 -130 -277 -185 -471 -91 -321
-105 -581 -49 -904 31 -180 129 -435 213 -557 59 -85 61 -91 76 -191 19 -131
30 -179 60 -272 84 -263 193 -450 416 -717 38 -45 212 -225 387 -400 327 -327
424 -440 537 -628 121 -201 261 -561 318 -816 48 -215 52 -243 51 -399 0 -192
-21 -287 -96 -440 -47 -94 -63 -116 -157 -210 -88 -88 -121 -113 -193 -149
l-87 -44 -73 13 c-40 7 -141 32 -224 55 -152 43 -310 78 -414 91 -74 9 -101
24 -176 100 -173 176 -295 370 -472 749 l-70 150 16 145 c13 122 14 178 4 350
-13 237 -36 370 -92 533 -82 238 -176 399 -325 553 -65 67 -84 94 -80 109 41
152 122 681 147 955 17 194 17 872 0 1040 -55 528 -134 945 -266 1394 -44 148
-58 191 -107 324 -10 28 -28 78 -40 110 -12 31 -25 66 -30 77 -4 11 -20 49
-35 85 -83 205 -256 558 -362 740 -192 329 -484 742 -727 1027 -208 242 -563
591 -800 784 -334 273 -716 527 -1135 756 -91 50 -183 101 -205 113 -183 104
-264 146 -374 191 -505 208 -1155 343 -1866 389 -176 11 -601 11 -795 0z
m-1632 -1181 c211 -168 368 -254 722 -394 336 -133 568 -322 773 -628 60 -90
172 -286 166 -291 -2 -2 -56 13 -119 35 -63 21 -167 48 -230 60 -63 12 -122
25 -130 29 -8 4 -34 40 -58 80 -127 216 -305 374 -652 581 -198 118 -262 164
-361 257 -74 69 -175 189 -236 279 -25 37 -93 168 -93 179 0 4 32 -23 70 -60
39 -36 105 -94 148 -127z m-1893 53 c252 -236 569 -395 1000 -500 256 -63 450
-131 595 -209 304 -164 549 -391 846 -785 l116 -153 -5 -106 c-7 -155 -42
-206 -161 -228 -58 -11 -153 3 -179 26 -11 10 -79 108 -152 218 -193 294 -310
432 -510 604 -179 154 -316 232 -630 361 -471 193 -641 312 -849 595 -73 100
-154 235 -141 235 4 0 35 -26 70 -58z m905 -1310 c175 -36 177 -37 90 -61
-138 -37 -448 -181 -626 -289 l-80 -49 -61 58 c-106 99 -259 191 -408 243 -19
7 -19 8 -2 17 26 15 309 79 417 94 149 22 535 14 670 -13z m1817 -57 c55 -8
123 -20 150 -26 120 -29 268 -119 340 -206 74 -89 80 -123 20 -123 -54 0 -97
-11 -97 -25 0 -26 211 -169 365 -248 61 -31 138 -75 173 -98 79 -52 206 -171
294 -277 65 -78 88 -92 88 -55 0 32 -89 201 -147 278 -32 44 -86 104 -119 133
-59 53 -216 164 -307 216 l-47 28 17 28 c15 26 15 31 0 72 -9 24 -37 67 -63
96 l-46 52 29 0 c38 0 187 -51 265 -90 138 -70 225 -156 439 -435 286 -371
399 -542 399 -602 0 -11 -9 -46 -20 -79 -30 -86 -28 -160 4 -225 46 -90 86
-135 363 -411 297 -295 300 -297 386 -264 24 9 46 16 49 16 13 0 30 -41 56
-134 34 -121 35 -265 3 -416 -43 -198 -89 -275 -179 -299 -69 -19 -101 -6
-207 80 -77 63 -130 95 -244 150 -80 39 -171 89 -201 111 -30 22 -161 148
-290 278 -232 234 -236 238 -335 288 -142 71 -213 86 -377 79 -135 -5 -246
-24 -413 -71 -49 -14 -116 -30 -148 -36 -109 -22 -162 -101 -101 -149 22 -17
41 -21 99 -21 l73 0 35 -47 c117 -161 206 -405 347 -957 120 -471 209 -604
403 -606 31 0 57 -4 57 -9 0 -16 -63 -63 -119 -89 -75 -34 -182 -29 -260 13
-75 41 -412 332 -419 362 -2 9 9 13 35 13 52 0 114 37 126 75 14 40 -3 133
-48 271 -115 353 -311 578 -575 662 -72 23 -210 55 -310 72 -84 15 -258 58
-282 71 -17 9 -16 13 19 38 93 67 195 213 209 298 7 46 -12 92 -48 118 -13 9
-68 30 -123 47 -154 47 -405 152 -393 163 5 5 79 16 382 55 82 10 154 24 160
30 8 8 7 18 -4 37 -11 19 -46 39 -129 74 -125 54 -242 127 -341 214 -79 68
-169 166 -170 182 0 14 47 3 330 -74 392 -106 474 -122 507 -98 16 12 16 14 0
38 -9 15 -56 49 -104 78 -216 127 -345 245 -460 418 -46 68 -113 197 -113 215
0 8 42 -14 97 -51 115 -77 365 -204 553 -281 74 -30 171 -70 214 -88 44 -18
84 -30 89 -27 16 10 -2 66 -40 120 -38 56 -128 122 -268 198 -107 58 -111 65
-38 65 136 0 240 41 302 120 41 51 81 143 81 184 0 40 12 37 70 -18 101 -97
275 -198 315 -182 13 5 12 12 -9 55 -27 52 -169 246 -257 352 -30 35 -70 84
-89 109 -19 24 -59 71 -87 105 -29 33 -53 63 -53 67 0 11 20 10 137 -7z
m-1066 -147 c121 -147 176 -225 263 -371 76 -127 85 -147 67 -147 -27 0 -232
152 -323 238 -115 111 -139 126 -175 117 -55 -13 -59 -100 -14 -270 52 -190
118 -342 207 -477 35 -53 64 -99 64 -103 0 -16 -189 39 -333 96 -53 21 -107
39 -119 39 -32 0 -58 -29 -58 -64 0 -24 55 -154 102 -242 2 -3 -46 -25 -107
-48 -141 -55 -211 -88 -310 -149 -246 -151 -437 -356 -574 -618 -118 -224
-168 -372 -206 -599 -88 -538 2 -1051 286 -1639 119 -245 212 -399 540 -891
424 -638 468 -708 624 -1015 120 -235 152 -308 137 -313 -12 -4 0 -41 81 -247
142 -364 241 -730 277 -1020 6 -49 16 -124 21 -165 20 -146 22 -464 5 -660
-18 -210 -38 -369 -62 -485 -9 -44 -17 -95 -19 -113 -4 -37 -65 -287 -99 -407
-13 -44 -40 -114 -60 -157 -20 -42 -36 -78 -36 -81 0 -3 -16 -40 -35 -81 -19
-42 -35 -79 -35 -84 0 -4 -10 -18 -21 -32 -20 -24 -20 -24 -14 -2 9 31 -2 28
-19 -6 -17 -34 -71 -50 -206 -63 -97 -9 -350 7 -350 21 0 4 19 25 42 46 84 75
161 172 274 341 63 95 125 184 138 198 37 39 102 237 136 407 45 233 63 529
34 558 -21 21 -43 -1 -50 -48 -33 -238 -103 -527 -188 -782 -25 -74 -48 -144
-50 -155 -16 -76 -90 -226 -152 -306 -52 -68 -249 -248 -220 -201 4 7 -6 6
-27 -3 -51 -21 -166 -10 -252 25 -112 45 -349 118 -453 140 -126 27 -345 36
-482 21 -217 -25 -371 -64 -680 -171 -394 -137 -585 -193 -665 -194 -50 -1
-73 5 -137 36 -123 59 -244 145 -365 262 -133 127 -212 225 -353 434 -57 83
-107 152 -112 152 -5 0 -4 -9 2 -19 14 -26 13 -31 -5 -25 -8 4 -15 10 -15 16
0 5 -11 24 -24 41 -28 36 -134 279 -190 432 -19 55 -86 246 -147 425 -228 666
-395 934 -683 1099 -148 84 -261 120 -411 128 -231 12 -526 -85 -701 -231
-133 -111 -257 -304 -323 -503 -122 -370 -88 -875 80 -1168 52 -92 157 -202
216 -229 60 -27 61 -42 5 -55 -141 -32 -355 -44 -542 -31 -341 23 -677 106
-727 179 -32 47 -116 266 -161 421 -76 259 -115 649 -90 885 31 285 67 467
139 700 68 216 203 533 268 629 87 128 192 316 196 352 7 55 147 246 284 387
301 309 692 513 1136 593 151 27 508 25 666 -4 373 -68 686 -269 887 -571 65
-96 172 -303 172 -331 0 -9 4 -20 10 -26 12 -12 91 -219 100 -264 4 -19 32
-118 63 -220 30 -102 92 -318 137 -480 174 -623 285 -938 419 -1195 269 -514
669 -833 1186 -946 129 -28 344 -35 466 -15 227 37 447 140 633 296 307 256
474 581 517 1008 30 284 -36 680 -166 1012 -45 113 -160 344 -210 418 -19 30
-35 61 -35 70 0 15 2 15 11 2 21 -31 -3 35 -46 125 -113 234 -273 472 -585
870 -473 604 -709 1017 -893 1565 -88 262 -150 581 -162 833 -3 62 -8 148 -10
192 -5 87 9 342 26 470 61 475 261 977 537 1348 138 187 259 318 447 488 278
249 677 468 1120 614 118 39 326 92 366 94 9 1 54 -45 100 -101z m-1721 -465
c0 -5 -32 -35 -71 -68 -119 -102 -339 -351 -438 -497 -50 -74 -54 -76 -79 -67
-96 37 -262 50 -430 34 l-67 -6 85 83 c253 246 556 419 882 503 102 26 118 29
118 18z m1646 -990 c80 -68 111 -100 104 -107 -7 -7 -83 -11 -209 -11 -223 0
-231 -2 -231 -65 0 -32 7 -44 50 -84 57 -54 206 -152 298 -198 34 -17 62 -34
62 -39 0 -4 -17 -13 -37 -19 -21 -7 -74 -31 -118 -54 -96 -50 -89 -52 -221 45
-116 85 -198 180 -260 302 -47 93 -48 96 -30 116 39 43 398 208 459 210 10 1
69 -43 133 -96z m-2474 -169 c-81 -186 -140 -383 -196 -655 -6 -25 -10 -27
-78 -34 -99 -10 -167 -29 -271 -75 l-89 -39 7 27 c11 47 85 207 133 291 78
135 171 258 272 360 93 94 248 226 257 218 2 -3 -14 -44 -35 -93z m1776 -118
c73 -157 192 -292 335 -380 42 -26 77 -50 77 -53 0 -3 -22 -31 -48 -62 -27
-31 -62 -75 -77 -99 -27 -41 -31 -43 -64 -37 -70 12 -245 76 -324 117 -75 39
-204 134 -237 174 -12 14 -11 22 9 57 54 94 266 347 291 347 4 0 22 -29 38
-64z m-402 -470 c8 -20 120 -109 191 -150 81 -47 238 -110 331 -133 83 -19 79
-6 43 -128 -12 -38 -26 -89 -31 -112 l-11 -43 -72 0 c-167 1 -420 50 -527 103
l-65 32 3 50 c4 58 37 183 83 308 31 84 44 102 55 73z m11274 -141 c0 -3 -26
-34 -59 -69 -32 -34 -90 -105 -128 -157 -190 -257 -283 -471 -344 -784 -21
-104 -18 -407 5 -515 87 -421 323 -708 901 -1093 707 -472 954 -703 1178
-1102 70 -126 169 -358 192 -450 9 -38 34 -131 55 -205 84 -297 104 -442 103
-730 -1 -186 -4 -235 -27 -360 -39 -216 -32 -201 -107 -228 -35 -12 -117 -43
-182 -69 -64 -25 -120 -44 -122 -41 -3 3 4 31 15 64 36 103 91 296 106 374 43
223 21 583 -55 869 -48 181 -154 496 -192 573 -16 32 -29 64 -29 72 0 16 -99
186 -170 292 -156 230 -355 426 -760 749 -309 245 -408 311 -432 287 -28 -28
87 -151 356 -382 218 -187 450 -404 531 -496 178 -202 316 -423 403 -644 83
-210 154 -445 206 -675 41 -186 39 -504 -5 -678 -48 -194 -91 -295 -176 -414
-47 -67 -43 -65 -193 -99 -81 -19 -353 -25 -444 -10 l-48 8 100 101 c181 185
260 343 307 609 72 405 -135 1162 -443 1623 -119 177 -209 279 -532 599 -324
322 -416 426 -532 601 -179 271 -253 502 -265 826 -7 189 5 332 42 493 81 359
322 732 634 982 105 84 111 88 111 79z m-8354 -85 c163 -97 230 -145 320 -235
133 -132 230 -289 314 -510 180 -470 207 -528 301 -648 105 -134 251 -226 424
-268 75 -18 110 -20 210 -16 119 5 184 20 263 61 47 24 39 4 -18 -47 -67 -60
-131 -102 -199 -129 -47 -19 -75 -23 -176 -23 -101 0 -130 4 -185 24 -99 36
-187 85 -267 149 -166 132 -223 231 -462 800 -89 210 -259 422 -428 531 l-82
53 -36 100 c-20 55 -48 124 -61 154 -13 30 -19 54 -13 54 6 0 48 -23 95 -50z
m-4532 -412 c-11 -179 21 -504 73 -726 l17 -73 -89 -88 c-50 -48 -128 -130
-175 -183 -47 -53 -88 -97 -91 -97 -14 -2 -20 249 -9 373 18 207 47 353 112
556 32 100 145 340 160 340 5 0 6 -45 2 -102z m1552 18 c100 -39 256 -70 404
-82 52 -3 102 -8 110 -10 8 -1 25 -3 38 -3 21 -1 22 -4 22 -95 0 -52 7 -130
15 -173 22 -113 23 -110 -37 -122 -167 -36 -392 -43 -533 -17 -50 10 -96 21
-103 25 -28 17 -48 530 -19 518 6 -3 53 -21 103 -41z m4174 -33 c6 -6 -48 -53
-61 -53 -5 0 -9 16 -9 36 0 35 1 35 33 29 17 -4 34 -9 37 -12z m-1024 -181
c76 -88 135 -174 148 -218 5 -17 -4 -27 -55 -59 -33 -20 -64 -33 -69 -29 -4 5
-26 81 -49 169 -22 88 -43 170 -47 183 -10 36 16 19 72 -46z m1293 0 c34 -29
42 -42 37 -57 -7 -21 -97 -95 -115 -95 -13 0 -13 1 -1 53 5 23 12 63 15 90 3
26 9 47 13 47 4 0 27 -17 51 -38z m-1079 -378 c0 -23 -104 -129 -118 -120 -25
15 -10 46 44 90 60 49 74 55 74 30z m-2718 -31 c9 -10 34 -65 57 -122 23 -57
49 -117 57 -132 7 -15 14 -33 14 -39 0 -6 -46 -33 -102 -60 -157 -76 -379
-125 -533 -118 l-70 3 -45 135 c-52 156 -95 319 -86 327 3 4 30 1 59 -7 28 -7
120 -15 202 -17 122 -4 174 -1 279 16 72 12 132 24 135 26 8 9 18 5 33 -12z
m2814 -173 c11 -38 11 -47 0 -59 -17 -16 -72 -9 -102 13 -18 13 -16 16 26 55
25 22 49 39 54 38 5 -2 15 -23 22 -47z m-2494 -406 c59 -82 107 -157 108 -167
0 -10 -22 -32 -57 -54 -127 -81 -504 -244 -599 -258 l-39 -6 -67 118 c-85 152
-181 334 -176 338 1 1 52 8 112 14 59 6 161 23 225 37 116 26 306 91 345 118
12 8 26 14 31 12 6 -1 58 -70 117 -152z m6317 2 c-12 -21 -26 -33 -34 -30 -7
3 -16 1 -20 -5 -3 -7 0 -8 9 -5 22 8 20 -9 -3 -30 -10 -9 -27 -38 -37 -64 -10
-26 -34 -75 -51 -110 -18 -34 -33 -71 -33 -82 0 -22 -15 -27 -23 -7 -3 6 -6 3
-6 -8 -1 -11 -6 -37 -12 -57 -8 -31 -15 -38 -34 -38 -23 0 -25 -4 -25 -46 l0
-45 -55 -25 c-31 -13 -92 -34 -138 -45 -176 -46 -337 -119 -507 -230 -153
-100 -143 -96 -135 -70 5 17 2 21 -14 21 -12 0 -21 6 -21 13 0 36 263 420 342
499 38 38 72 49 81 26 2 -7 0 -21 -5 -31 -12 -23 6 -47 37 -47 26 0 143 73
151 95 4 8 13 15 20 15 19 0 31 34 40 110 6 58 9 62 51 91 56 39 150 82 162
75 5 -3 29 3 54 14 48 21 154 47 199 49 l27 1 -20 -34z m1126 -216 c50 -6 101
-13 115 -16 l25 -6 -24 -19 c-13 -10 -31 -19 -40 -19 -20 0 -120 -64 -179
-116 -32 -27 -135 -147 -157 -181 -1 -2 -17 2 -36 7 -185 55 -419 90 -591 90
-98 0 -118 3 -118 15 0 18 20 20 20 3 0 -7 8 -1 17 13 18 30 190 116 320 160
69 23 204 54 313 72 51 8 248 7 335 -3z m-7013 -282 c252 -259 244 -220 73
-334 -163 -108 -312 -172 -580 -248 l-89 -26 -22 22 c-20 22 -244 350 -292
430 l-23 36 58 17 c216 63 552 225 622 299 14 14 27 26 30 26 3 0 104 -100
223 -222z m-2597 102 c80 -187 189 -384 372 -675 l51 -81 -25 -29 c-40 -49
-96 -155 -124 -235 l-27 -75 -15 35 c-8 19 -30 71 -49 115 -141 324 -228 687
-228 944 0 47 4 81 8 76 5 -6 21 -39 37 -75z m8292 -2 c-3 -8 -6 -5 -6 6 -1
11 2 17 5 13 3 -3 4 -12 1 -19z m572 -278 c412 -37 781 -177 1116 -425 76 -56
244 -201 285 -245 246 -268 341 -399 487 -675 112 -211 154 -307 249 -565 51
-141 94 -246 216 -530 44 -102 177 -374 236 -480 52 -94 157 -255 213 -327 27
-35 49 -64 49 -66 0 -2 -42 -7 -92 -10 -119 -9 -298 -50 -513 -120 -238 -77
-423 -120 -555 -129 l-45 -3 -21 85 c-150 592 -257 864 -444 1135 -322 465
-716 736 -1140 785 -145 17 -378 10 -455 -14 -225 -69 -322 -105 -405 -150
-291 -158 -603 -477 -818 -836 -82 -138 -280 -530 -326 -646 -51 -131 -104
-312 -123 -420 l-17 -93 -50 -10 c-28 -5 -77 -13 -108 -16 -71 -8 -70 -15 -23
160 81 294 143 449 337 836 233 465 487 790 801 1023 278 207 542 311 852 336
413 33 793 -69 1167 -313 47 -32 91 -57 97 -57 19 0 12 45 -12 81 -29 43 -152
132 -282 204 -164 91 -318 145 -540 191 -100 21 -436 30 -544 14 -267 -38
-527 -137 -751 -286 -243 -161 -470 -394 -651 -669 -119 -180 -155 -244 -292
-519 -210 -422 -291 -663 -312 -928 l-7 -77 -56 4 c-129 11 -339 53 -497 99
-44 13 -128 37 -187 52 -60 16 -108 33 -108 39 0 5 34 118 76 250 68 215 107
328 149 435 8 19 45 123 84 230 123 344 172 459 307 730 143 285 381 635 621
912 157 181 385 388 581 528 35 25 86 63 114 85 96 75 153 114 218 148 36 20
91 51 122 70 72 43 268 107 326 106 23 -1 86 10 140 25 83 22 287 51 387 55
17 0 81 -4 144 -9z m1113 -5 c219 -27 424 -92 570 -181 59 -36 67 -54 22 -54
-44 0 -182 -51 -257 -96 -59 -34 -75 -40 -88 -31 -9 7 -52 39 -95 71 -114 86
-255 176 -372 239 -58 31 -98 57 -90 60 26 11 196 7 310 -8z m-2976 -125 c15
0 20 -17 29 -109 4 -35 17 -105 30 -155 22 -85 23 -92 7 -107 -9 -9 -63 -57
-119 -107 -101 -91 -300 -307 -389 -422 -26 -33 -49 -58 -52 -56 -7 8 88 325
122 405 84 194 182 366 289 504 41 53 63 75 65 64 2 -10 10 -17 18 -17z
m-9933 -11 c252 -51 527 -180 677 -318 l45 -42 -60 29 c-184 89 -431 142 -674
144 l-143 1 -49 62 c-27 35 -69 79 -94 99 -25 21 -45 42 -45 48 0 17 222 2
343 -23z m6100 -248 c125 -127 227 -238 227 -248 0 -26 -99 -116 -197 -180
-146 -95 -385 -192 -615 -248 -78 -19 -147 -35 -154 -35 -7 0 -25 21 -40 48
-36 61 -203 327 -266 420 -27 40 -46 77 -44 81 3 4 31 13 63 20 253 56 559
203 718 344 35 31 54 42 65 37 8 -5 117 -112 243 -239z m7567 -67 c-7 -27 -13
-54 -15 -61 -3 -8 -27 -2 -77 21 -40 18 -82 36 -92 40 -13 4 -16 10 -9 17 14
14 186 49 196 39 4 -4 3 -29 -3 -56z m-12151 -354 c229 -342 360 -836 378
-1430 5 -177 -1 -339 -14 -327 -2 3 -11 35 -18 72 -8 37 -28 111 -44 164 -17
53 -41 137 -55 186 -13 50 -38 137 -56 195 -17 58 -47 159 -67 225 -98 332
-217 590 -354 772 l-51 67 9 82 c8 78 3 206 -12 284 -6 33 0 29 107 -80 67
-68 140 -154 177 -210z m11977 163 c139 -72 329 -245 411 -372 56 -87 118
-216 156 -327 47 -136 84 -378 78 -504 -2 -29 -11 -11 -55 105 -163 432 -373
796 -604 1048 -32 34 -64 70 -71 80 -12 15 -12 17 5 10 11 -5 47 -23 80 -40z
m-7005 -160 c101 -105 359 -439 359 -465 0 -27 -38 -83 -85 -126 -35 -32 -98
-71 -186 -114 -142 -70 -188 -87 -393 -143 -118 -31 -145 -44 -146 -68 0 -4 8
-10 18 -14 36 -13 42 -23 22 -43 -10 -10 -26 -21 -37 -24 -31 -10 -292 -46
-332 -46 -40 0 -44 6 -56 85 -2 11 -22 62 -44 114 -23 52 -41 104 -41 116 0
23 -45 120 -104 223 -20 35 -34 67 -31 72 2 4 22 10 44 14 22 3 94 22 161 41
321 92 618 246 740 383 25 27 47 50 50 51 3 1 31 -25 61 -56z m-2622 -343
c156 -206 222 -303 261 -380 l32 -63 -26 -99 c-29 -108 -82 -254 -97 -263 -5
-4 -9 8 -9 25 0 17 -7 47 -15 67 -9 21 -13 49 -10 63 3 15 -11 76 -36 155 -22
72 -42 140 -45 151 -2 12 -31 77 -63 145 -71 149 -181 406 -181 422 1 18 59
-50 189 -223z m5246 -30 c10 -41 34 -111 54 -155 41 -91 43 -83 -34 -200 -39
-60 -265 -507 -265 -525 0 -5 -5 -12 -11 -16 -9 -5 -10 30 -6 137 9 243 95
596 192 788 42 84 43 84 70 -29z m-2157 -252 c23 -30 162 -302 159 -312 -2 -6
2 -25 10 -43 7 -18 10 -38 7 -46 -3 -8 15 -56 40 -105 25 -50 62 -129 81 -176
40 -98 41 -95 -35 -183 -132 -152 -377 -263 -695 -314 -88 -15 -469 -18 -547
-5 -41 6 -49 11 -54 34 -15 66 -89 309 -130 426 -24 72 -43 135 -40 142 2 6
33 15 68 19 154 16 319 55 484 113 148 53 147 52 74 50 -112 -2 -166 2 -152
11 7 4 12 14 10 21 -2 8 41 27 122 55 278 94 429 174 535 284 43 45 48 47 63
29z m1693 -714 c-1 -42 5 -133 15 -203 20 -146 26 -115 -76 -381 -29 -74 -82
-221 -119 -327 -36 -105 -70 -195 -74 -199 -19 -20 6 377 32 501 62 293 112
464 175 598 20 41 36 81 36 88 0 7 3 9 7 5 4 -4 6 -41 4 -82z m-6201 -19 c367
-170 796 -311 1293 -425 98 -23 188 -45 200 -49 26 -11 23 -12 -78 -36 -86
-20 -227 -79 -363 -152 -74 -39 -111 -54 -130 -50 -15 2 -140 34 -279 71 -138
36 -265 66 -282 66 -34 0 -52 -33 -30 -55 8 -7 82 -43 164 -79 301 -134 585
-273 585 -285 0 -5 -42 -11 -92 -14 -156 -10 -387 -77 -562 -163 -38 -19 -70
-33 -71 -32 -1 2 -22 41 -46 87 -61 117 -157 218 -254 268 -63 32 -75 42 -75
63 0 48 -30 361 -40 428 -15 91 -66 292 -96 375 -21 59 -22 66 -6 58 9 -5 82
-39 162 -76z m10227 -42 c155 -172 306 -410 383 -603 74 -185 158 -467 224
-752 l6 -27 -112 6 c-62 3 -115 7 -117 9 -3 3 -6 15 -8 27 -40 266 -136 672
-205 857 -73 200 -168 399 -242 508 -31 46 -56 86 -56 89 0 13 63 -44 127
-114z m-8220 8 c38 -83 99 -251 106 -288 l7 -33 -64 0 c-35 0 -91 3 -125 7
-58 6 -62 8 -56 27 3 12 10 35 15 51 5 17 21 63 35 103 14 40 29 102 32 137 3
38 10 62 16 58 5 -3 21 -31 34 -62z m-2309 -101 c67 -264 86 -413 86 -695 1
-219 -5 -515 -10 -515 -6 0 -129 304 -168 414 l-45 128 19 85 c38 159 51 278
57 508 l6 230 18 -40 c10 -22 26 -74 37 -115z m5205 -67 c2 -16 16 -59 31 -98
15 -38 31 -86 35 -105 5 -19 23 -89 40 -155 16 -66 39 -171 50 -234 l19 -114
-26 -34 c-33 -41 -130 -117 -192 -148 -74 -37 -215 -84 -318 -104 -247 -50
-527 -34 -841 50 l-120 31 -6 57 c-15 131 -46 369 -55 411 -4 25 -7 46 -5 48
1 2 66 -2 143 -7 328 -23 639 35 905 171 120 62 195 116 267 195 30 34 58 61
61 62 4 0 9 -11 12 -26z m-7558 -251 c6 -4 11 -38 13 -77 4 -126 69 -306 156
-434 l36 -53 -27 7 c-15 3 -81 18 -147 31 -238 49 -457 170 -547 301 -30 43
-30 45 -12 59 125 101 311 169 468 173 28 0 55 -3 60 -7z m311 -72 c185 -83
348 -259 472 -505 53 -106 147 -337 180 -445 84 -275 113 -360 184 -545 95
-247 145 -354 130 -280 -2 14 -2 25 1 25 16 0 72 -71 95 -119 165 -350 450
-698 722 -882 l65 -44 -43 -3 c-110 -8 -291 42 -421 115 -185 105 -391 351
-535 640 -52 104 -76 140 -76 113 0 -6 5 -20 11 -32 6 -11 13 -32 15 -46 l4
-27 -20 25 c-11 14 -20 31 -20 38 0 7 -6 20 -14 27 -15 15 -62 159 -131 405
-145 513 -161 564 -225 696 -49 102 -83 144 -314 399 -93 102 -141 166 -174
229 -26 51 -84 255 -76 268 6 9 95 -18 170 -52z m4374 -63 c0 -7 -11 -53 -25
-102 -42 -150 -63 -228 -70 -262 -8 -38 4 -37 -185 -23 -190 14 -237 25 -364
79 -61 27 -132 56 -158 66 -27 10 -48 19 -48 21 0 12 89 59 175 93 221 87 675
173 675 128z m184 -134 c4 -27 9 -138 11 -248 3 -164 1 -214 -14 -280 -40
-184 -121 -372 -219 -510 -52 -72 -180 -210 -188 -202 -3 3 8 29 24 58 30 56
74 181 116 329 78 273 122 432 182 653 37 136 70 247 74 247 4 0 10 -21 14
-47z m-5432 -124 c73 -86 160 -150 281 -209 l97 -48 -87 -55 c-138 -86 -184
-100 -338 -101 -109 -1 -142 3 -202 22 -43 13 -73 28 -73 36 0 26 50 167 81
229 35 68 87 152 127 206 l26 34 15 -24 c9 -13 42 -54 73 -90z m13552 -184
c49 -225 71 -344 64 -350 -8 -8 -402 66 -413 77 -2 2 37 57 87 123 50 66 120
164 155 218 36 54 67 97 68 95 2 -2 20 -75 39 -163z m-4573 -63 c4 -86 10
-171 14 -188 l7 -31 -64 14 c-34 8 -68 16 -75 18 -13 4 -5 47 33 175 31 102
64 183 73 175 3 -4 9 -77 12 -163z m-5706 23 c105 -102 167 -273 255 -708 23
-114 40 -212 38 -218 -4 -12 -116 70 -203 148 -33 30 -93 93 -132 141 -85 102
-82 85 -58 347 8 88 15 202 15 253 0 112 6 115 85 37z m5052 -72 c0 -21 3
-108 6 -193 4 -148 -10 -383 -30 -475 -7 -34 -19 -48 -78 -93 -179 -135 -398
-202 -655 -202 -232 1 -419 48 -657 169 -147 74 -137 59 -123 176 7 55 14 188
16 295 2 107 4 196 4 197 0 1 30 -7 68 -18 191 -56 370 -82 577 -82 189 -1
306 17 475 73 126 41 222 87 315 149 33 23 65 41 70 41 6 0 11 -17 12 -37z
m-3365 -30 c58 -3 111 -9 116 -12 6 -4 3 -29 -8 -66 -11 -33 -31 -100 -45
-150 -53 -181 -119 -367 -132 -372 -7 -3 -35 4 -61 15 -26 11 -94 31 -152 44
-145 32 -437 33 -575 1 -49 -11 -95 -22 -101 -24 -6 -2 -83 38 -171 90 l-160
94 -20 83 c-15 61 -17 86 -9 93 20 16 203 89 313 124 140 45 296 71 548 91 57
4 297 -1 457 -11z m-4082 -80 c141 -71 214 -173 288 -403 50 -157 82 -267 82
-282 0 -9 -38 -26 -102 -47 -61 -20 -185 -75 -303 -136 -110 -57 -236 -118
-280 -136 l-79 -31 -53 56 c-88 95 -148 217 -178 367 -40 192 22 410 148 526
98 90 189 124 322 120 79 -2 99 -6 155 -34z m-1139 -113 c78 -27 178 -41 279
-40 47 1 88 1 92 1 4 -1 -4 -27 -17 -59 -13 -32 -32 -103 -41 -157 -17 -93
-21 -102 -59 -140 -48 -48 -134 -91 -229 -117 -38 -10 -73 -18 -77 -18 -22 0
-47 257 -41 433 4 134 1 130 93 97z m4047 -474 c32 -18 118 -68 192 -111 209
-121 457 -281 448 -291 -9 -9 -378 18 -430 31 -99 26 -196 66 -203 83 -3 9
-19 75 -35 147 -16 71 -32 140 -36 153 -8 29 -2 28 64 -12z m817 -36 c55 -11
130 -29 167 -40 l67 -20 -40 -65 c-51 -80 -116 -155 -136 -155 -8 0 -102 59
-210 130 -107 72 -201 130 -208 130 -17 0 -37 34 -27 45 13 14 285 -3 387 -25z
m-4526 -135 c32 -106 107 -254 156 -309 55 -60 49 -70 -36 -62 -205 21 -364
125 -454 298 -20 39 -34 72 -32 74 2 2 41 9 87 15 88 11 173 36 212 63 12 9
27 15 32 13 5 -2 21 -43 35 -92z m6754 -58 c67 -40 231 -107 347 -140 358
-104 716 -64 1003 110 32 19 61 33 64 29 3 -3 -2 -35 -11 -71 -9 -36 -19 -88
-21 -115 -3 -27 -12 -75 -19 -107 -8 -32 -17 -76 -20 -98 -11 -82 -19 -112
-53 -183 -49 -104 -68 -114 -273 -141 -293 -39 -545 -97 -592 -136 -16 -14
-35 -25 -43 -25 -16 0 -187 62 -280 102 -136 58 -315 200 -315 249 0 10 12 53
26 96 37 115 71 247 84 338 13 88 25 125 39 125 5 0 33 -15 64 -33z m4707
-491 c0 -2 -7 -7 -16 -10 -8 -3 -12 -2 -9 4 6 10 25 14 25 6z m-4876 -144
c137 -134 188 -178 224 -196 17 -9 32 -18 32 -20 0 -3 -24 -12 -52 -21 -29
-10 -60 -23 -68 -29 -19 -15 -126 -56 -250 -94 -125 -39 -160 -46 -160 -33 0
6 25 56 56 111 57 104 98 206 88 221 -3 5 2 9 10 9 10 0 16 9 16 25 0 27 -9
32 -28 13 -9 -9 -12 -9 -12 0 0 13 42 102 48 102 3 0 46 -40 96 -88z m4638 16
c-6 -6 -15 -8 -19 -4 -4 4 -1 11 7 16 19 12 27 3 12 -12z m-32 -12 c0 -2 -7
-7 -16 -10 -8 -3 -12 -2 -9 4 6 10 25 14 25 6z m-2733 -62 c-3 -3 -12 -4 -19
-1 -8 3 -5 6 6 6 11 1 17 -2 13 -5z m2253 -138 c0 -8 -63 -36 -79 -35 -9 0 2
9 24 19 41 19 55 23 55 16z"/>
<path d="M13710 10005 c-28 -34 22 -164 89 -231 22 -23 65 -52 95 -65 l54 -24
7 -80 c15 -189 81 -297 220 -362 58 -26 68 -28 260 -33 l200 -5 57 -33 c92
-53 466 -356 532 -431 11 -11 26 -21 34 -21 26 0 4 51 -56 129 -94 123 -118
150 -255 289 l-131 132 17 28 c41 62 52 98 52 167 0 59 -5 81 -32 135 -38 77
-87 130 -105 112 -8 -8 -7 -34 7 -106 9 -52 15 -106 11 -119 -10 -40 -45 -76
-81 -83 -49 -9 -86 18 -182 128 -161 186 -225 228 -438 287 -145 40 -203 70
-272 141 -32 33 -61 60 -64 60 -4 0 -12 -7 -19 -15z m521 -439 c57 -44 159
-170 159 -195 0 -11 -13 -13 -61 -8 -86 8 -131 40 -158 112 -24 63 -28 135 -8
135 6 0 37 -20 68 -44z"/>
<path d="M13036 9149 c-14 -17 -29 -43 -32 -57 -3 -15 -7 -35 -9 -45 -6 -32
23 -144 55 -208 61 -121 177 -269 211 -269 35 0 31 26 -16 120 -80 158 -107
243 -112 350 -7 138 -41 176 -97 109z"/>
<path d="M15475 8599 c-28 -14 -43 -40 -51 -88 -5 -34 -3 -43 19 -65 18 -18
37 -26 61 -26 49 0 104 -66 152 -181 27 -66 42 -89 55 -89 26 0 32 35 27 156
-4 94 -8 111 -39 171 -27 53 -44 73 -80 96 -51 31 -113 43 -144 26z"/>
<path d="M11627 10460 c-362 -122 -732 -385 -1018 -725 -267 -317 -467 -721
-538 -1085 -6 -30 -16 -77 -21 -105 -48 -232 -64 -610 -36 -835 45 -360 100
-584 212 -870 62 -157 94 -224 182 -375 164 -284 293 -465 647 -910 104 -131
206 -260 225 -285 19 -26 84 -112 144 -191 187 -248 402 -594 411 -661 4 -31
24 -76 109 -248 210 -424 318 -730 387 -1095 40 -216 46 -237 67 -233 25 5 26
66 7 243 -27 241 -95 527 -181 751 -25 65 -56 148 -68 184 -13 36 -47 116 -76
178 -37 79 -50 116 -42 121 8 5 -12 54 -64 155 -179 356 -371 636 -804 1171
-320 396 -440 562 -609 844 -257 429 -403 937 -418 1456 -12 446 76 846 273
1235 131 260 264 442 483 661 218 218 423 367 732 529 85 45 158 85 163 90 12
12 -11 40 -33 40 -9 0 -69 -18 -134 -40z"/>
<path d="M6465 5334 c-183 -33 -453 -145 -618 -255 -160 -107 -332 -280 -404
-408 -14 -25 -63 -104 -109 -176 -45 -71 -96 -161 -113 -198 -17 -38 -39 -81
-50 -95 -43 -63 -148 -354 -185 -514 -75 -326 -66 -737 25 -1100 52 -210 103
-328 140 -328 26 0 25 22 -6 150 -38 153 -73 386 -86 561 -25 323 26 651 148
959 70 178 131 289 302 550 190 291 281 395 446 512 121 86 335 182 505 228
47 12 109 29 137 37 63 16 84 44 57 74 -21 23 -72 24 -189 3z"/>
<path d="M12458 1055 c-6 -14 -14 -25 -18 -25 -4 0 -10 -8 -13 -17 -2 -10 -8
-27 -13 -38 -7 -18 -6 -18 7 -5 17 19 37 53 49 86 12 32 3 31 -12 -1z"/>
<path d="M11809 1033 l-24 -28 28 24 c15 14 27 26 27 28 0 8 -8 1 -31 -24z"/>
<path d="M18315 5875 c-38 -7 -90 -20 -115 -28 -25 -9 -76 -24 -115 -35 -161
-44 -380 -147 -580 -272 -388 -241 -673 -507 -986 -916 -112 -147 -186 -256
-208 -305 -10 -24 -43 -85 -73 -134 -118 -192 -286 -548 -354 -747 -15 -44
-25 -100 -27 -143 -3 -111 17 -94 94 80 172 390 344 704 574 1050 150 225 350
453 568 647 135 121 387 308 467 348 25 13 88 48 140 80 108 65 195 102 395
171 190 65 242 73 435 73 293 -1 522 -55 776 -185 196 -99 438 -303 569 -479
43 -58 74 -90 86 -90 29 0 24 31 -17 113 -59 117 -128 208 -242 319 -227 220
-514 372 -832 440 -123 26 -448 34 -555 13z"/>
<path d="M12803 1175 c0 -15 44 -62 51 -54 2 2 -8 19 -23 37 -17 19 -28 26
-28 17z"/>
<path d="M11655 12791 c-78 -36 -405 -219 -427 -239 -11 -9 -18 -29 -18 -49 0
-31 4 -36 44 -54 24 -10 65 -22 90 -25 40 -6 53 -2 103 27 32 19 116 64 186
99 70 36 142 77 160 91 l32 27 -19 56 c-21 62 -48 96 -74 96 -9 -1 -44 -13
-77 -29z"/>
<path d="M21946 2290 c-118 -21 -216 -77 -216 -123 0 -18 4 -19 58 -12 169 21
356 0 567 -65 376 -115 470 -135 785 -170 52 -5 158 -17 235 -26 231 -28 411
-29 546 -5 263 47 599 207 574 274 -9 21 -32 29 -53 17 -34 -19 -215 -71 -339
-97 -115 -24 -149 -27 -343 -27 -164 -1 -235 3 -300 16 -47 9 -148 24 -225 33
-335 39 -438 57 -691 121 -252 65 -263 67 -404 70 -80 1 -167 -1 -194 -6z"/>
<path d="M17380 2199 c-237 -110 -471 -189 -670 -226 -75 -14 -147 -18 -340
-18 -258 1 -400 17 -580 65 -195 52 -364 91 -376 86 -24 -9 -15 -44 19 -70 55
-42 316 -165 427 -201 204 -66 292 -79 515 -80 223 0 291 10 475 71 273 91
664 336 619 390 -15 18 -13 18 -89 -17z"/>
<path d="M20810 2175 c-157 -32 -272 -80 -795 -335 -41 -20 -88 -33 -145 -40
-140 -17 -148 -19 -156 -42 -10 -32 11 -38 141 -38 195 0 321 27 545 117 334
134 447 163 660 170 140 5 168 2 282 -21 157 -32 168 -32 168 -5 0 54 -153
143 -315 184 -112 29 -273 33 -385 10z"/>
<path d="M21875 1764 c-167 -11 -275 -36 -275 -63 0 -4 41 -14 92 -21 50 -7
216 -41 367 -77 422 -98 447 -103 581 -110 220 -10 422 32 578 120 57 32 72
45 70 62 -4 27 -47 29 -203 10 -214 -27 -484 -15 -677 30 -139 31 -411 56
-533 49z"/>
<path d="M6595 1264 c-223 -102 -422 -152 -690 -174 -359 -29 -866 6 -1115 77
-47 13 -101 27 -120 29 -19 3 -54 15 -77 26 -39 19 -73 19 -73 0 0 -18 66 -75
127 -109 142 -79 344 -147 563 -190 114 -22 170 -27 362 -31 243 -4 373 5 518
39 184 42 325 100 480 195 152 94 199 148 151 174 -25 13 -10 17 -126 -36z"/>
<path d="M14135 1099 c-127 -21 -196 -36 -242 -52 -35 -12 -46 -28 -15 -22 9
2 49 9 87 16 39 6 77 15 85 19 8 4 40 11 71 14 31 4 67 9 80 12 21 5 119 11
241 15 21 1 35 5 32 10 -9 15 -224 8 -339 -12z"/>
<path d="M14503 1103 c9 -2 23 -2 30 0 6 3 -1 5 -18 5 -16 0 -22 -2 -12 -5z"/>
<path d="M14568 1098 c5 -5 16 -8 23 -6 8 3 3 7 -10 11 -17 4 -21 3 -13 -5z"/>
<path d="M14618 1093 c7 -3 16 -2 19 1 4 3 -2 6 -13 5 -11 0 -14 -3 -6 -6z"/>
<path d="M14715 1071 c36 -14 95 -22 95 -13 0 9 -58 22 -95 21 l-20 0 20 -8z"/>
<path d="M14974 1061 c6 -10 3 -11 -13 -6 -28 8 -27 -6 2 -31 27 -23 75 -49
81 -43 9 10 -15 49 -45 70 -18 12 -29 17 -25 10z"/>
<path d="M7408 832 c-32 -7 -19 -43 48 -133 81 -110 250 -272 375 -361 163
-117 409 -228 627 -283 85 -21 315 -45 442 -45 195 0 378 32 581 101 120 40
249 105 249 124 0 23 -46 29 -119 16 -316 -54 -709 -65 -979 -26 -130 18 -357
81 -482 132 -235 97 -432 222 -600 380 -98 92 -113 102 -142 95z"/>
</g>
</svg>
